<svg id="visual" viewBox="0 0 900 600" width="900" height="600" xmlns="http://www.w3.org/2000/svg" xmlns:xlink="http://www.w3.org/1999/xlink" version="1.1"><path d="M0 372L25 374.2C50 376.3 100 380.7 150 386.7C200 392.7 250 400.3 300 406.7C350 413 400 418 450 418.7C500 419.3 550 415.7 600 409.2C650 402.7 700 393.3 750 395.2C800 397 850 410 875 416.5L900 423L900 601L875 601C850 601 800 601 750 601C700 601 650 601 600 601C550 601 500 601 450 601C400 601 350 601 300 601C250 601 200 601 150 601C100 601 50 601 25 601L0 601Z" fill="#ffffff"></path><path d="M0 450L25 448.3C50 446.7 100 443.3 150 439.2C200 435 250 430 300 425.5C350 421 400 417 450 419.3C500 421.7 550 430.3 600 431.3C650 432.3 700 425.7 750 421.3C800 417 850 415 875 414L900 413L900 601L875 601C850 601 800 601 750 601C700 601 650 601 600 601C550 601 500 601 450 601C400 601 350 601 300 601C250 601 200 601 150 601C100 601 50 601 25 601L0 601Z" fill="#ffd8d0"></path><path d="M0 446L25 450.3C50 454.7 100 463.3 150 462.8C200 462.3 250 452.7 300 451.3C350 450 400 457 450 463.5C500 470 550 476 600 472C650 468 700 454 750 451.5C800 449 850 458 875 462.5L900 467L900 601L875 601C850 601 800 601 750 601C700 601 650 601 600 601C550 601 500 601 450 601C400 601 350 601 300 601C250 601 200 601 150 601C100 601 50 601 25 601L0 601Z" fill="#ffb1a3"></path><path d="M0 475L25 478.3C50 481.7 100 488.3 150 493.2C200 498 250 501 300 503.5C350 506 400 508 450 508.2C500 508.3 550 506.7 600 502.3C650 498 700 491 750 491C800 491 850 498 875 501.5L900 505L900 601L875 601C850 601 800 601 750 601C700 601 650 601 600 601C550 601 500 601 450 601C400 601 350 601 300 601C250 601 200 601 150 601C100 601 50 601 25 601L0 601Z" fill="#f88977"></path><path d="M0 521L25 519.7C50 518.3 100 515.7 150 515.2C200 514.7 250 516.3 300 519.3C350 522.3 400 526.7 450 527.5C500 528.3 550 525.7 600 526.3C650 527 700 531 750 530C800 529 850 523 875 520L900 517L900 601L875 601C850 601 800 601 750 601C700 601 650 601 600 601C550 601 500 601 450 601C400 601 350 601 300 601C250 601 200 601 150 601C100 601 50 601 25 601L0 601Z" fill="#ec5e4e"></path><path d="M0 544L25 545.5C50 547 100 550 150 552.3C200 554.7 250 556.3 300 557.7C350 559 400 560 450 561.8C500 563.7 550 566.3 600 565.8C650 565.3 700 561.7 750 558.7C800 555.7 850 553.3 875 552.2L900 551L900 601L875 601C850 601 800 601 750 601C700 601 650 601 600 601C550 601 500 601 450 601C400 601 350 601 300 601C250 601 200 601 150 601C100 601 50 601 25 601L0 601Z" fill="#dc2626"></path></svg>